<svg width="55" height="55" viewBox="0 0 55 55" fill="none" xmlns="http://www.w3.org/2000/svg">
<rect width="55" height="55" rx="27.5" fill="#7A66CC"/>
<path d="M28.0607 7.93934C27.4749 7.35356 26.5251 7.35356 25.9393 7.93934L16.3934 17.4853C15.8076 18.0711 15.8076 19.0208 16.3934 19.6066C16.9792 20.1924 17.9289 20.1924 18.5147 19.6066L27 11.1213L35.4853 19.6066C36.0711 20.1924 37.0208 20.1924 37.6066 19.6066C38.1924 19.0208 38.1924 18.0711 37.6066 17.4853L28.0607 7.93934ZM28.5 47L28.5 29.5L25.5 29.5L25.5 47L28.5 47ZM28.5 29.5L28.5 9L25.5 9L25.5 29.5L28.5 29.5Z" fill="black"/>
</svg>
