<svg width="72" height="39" viewBox="0 0 72 39" fill="none" xmlns="http://www.w3.org/2000/svg">
<g filter="url(#filter0_d_1_52)">
<rect opacity="0.6" x="4.25" y="8.25" width="3.5" height="22.5" fill="#7A66CC" stroke="#1C1B21" stroke-width="0.5"/>
<rect opacity="0.3" x="8.25" y="18.25" width="3.5" height="12.5" fill="#7A66CC" stroke="#1C1B21" stroke-width="0.5"/>
<rect opacity="0.8" x="12.25" y="5.25" width="3.5" height="25.5" fill="#7A66CC" stroke="#1C1B21" stroke-width="0.5"/>
<rect opacity="0.6" x="16.25" y="12.25" width="3.5" height="18.5" fill="#7A66CC" stroke="#1C1B21" stroke-width="0.5"/>
<rect x="20.25" y="0.25" width="3.5" height="30.5" fill="#7A66CC" stroke="#1C1B21" stroke-width="0.5"/>
<rect opacity="0.9" x="24.25" y="5.25" width="3.5" height="25.5" fill="#7A66CC" stroke="#1C1B21" stroke-width="0.5"/>
<rect opacity="0.6" x="28.25" y="10.25" width="3.5" height="20.5" fill="#7A66CC" stroke="#1C1B21" stroke-width="0.5"/>
<rect opacity="0.8" x="32.25" y="3.25" width="3.5" height="27.5" fill="#7A66CC" stroke="#1C1B21" stroke-width="0.5"/>
<rect opacity="0.4" x="36.25" y="17.25" width="3.5" height="13.5" fill="#7A66CC" stroke="#1C1B21" stroke-width="0.5"/>
<rect opacity="0.5" x="40.25" y="12.25" width="3.5" height="18.5" fill="#7A66CC" stroke="#1C1B21" stroke-width="0.5"/>
<rect opacity="0.55" x="44.25" y="8.25" width="3.5" height="22.5" fill="#7A66CC" stroke="#1C1B21" stroke-width="0.5"/>
<rect opacity="0.6" x="48.25" y="4.25" width="3.5" height="26.5" fill="#7A66CC" stroke="#1C1B21" stroke-width="0.5"/>
<rect opacity="0.3" x="52.25" y="19.25" width="3.5" height="11.5" fill="#7A66CC" stroke="#1C1B21" stroke-width="0.5"/>
<rect opacity="0.2" x="56.25" y="24.25" width="3.5" height="6.5" fill="#7A66CC" stroke="#1C1B21" stroke-width="0.5"/>
<rect opacity="0.8" x="60.25" y="2.25" width="3.5" height="28.5" fill="#7A66CC" stroke="#1C1B21" stroke-width="0.5"/>
<rect opacity="0.8" x="64.25" y="8.25" width="3.5" height="22.5" fill="#7A66CC" stroke="#1C1B21" stroke-width="0.5"/>
</g>
<defs>
<filter id="filter0_d_1_52" x="0" y="0" width="72" height="39" filterUnits="userSpaceOnUse" color-interpolation-filters="sRGB">
<feFlood flood-opacity="0" result="BackgroundImageFix"/>
<feColorMatrix in="SourceAlpha" type="matrix" values="0 0 0 0 0 0 0 0 0 0 0 0 0 0 0 0 0 0 127 0" result="hardAlpha"/>
<feOffset dy="4"/>
<feGaussianBlur stdDeviation="2"/>
<feComposite in2="hardAlpha" operator="out"/>
<feColorMatrix type="matrix" values="0 0 0 0 0 0 0 0 0 0 0 0 0 0 0 0 0 0 0.25 0"/>
<feBlend mode="normal" in2="BackgroundImageFix" result="effect1_dropShadow_1_52"/>
<feBlend mode="normal" in="SourceGraphic" in2="effect1_dropShadow_1_52" result="shape"/>
</filter>
</defs>
</svg>
